<svg xmlns="http://www.w3.org/2000/svg" width="430" height="430" style="width:100%;height:100%;transform:translate3d(0,0,0);content-visibility:visible" viewBox="0 0 430 430"><defs><filter id="a" width="100%" height="100%" x="0%" y="0%" filterUnits="objectBoundingBox"><feComponentTransfer in="SourceGraphic"><feFuncA tableValues="1.0 0.0" type="table"/></feComponentTransfer></filter><filter id="c" width="100%" height="100%" x="0%" y="0%" filterUnits="objectBoundingBox"><feComponentTransfer in="SourceGraphic"><feFuncA tableValues="1.0 0.0" type="table"/></feComponentTransfer></filter><filter id="e" width="100%" height="100%" x="0%" y="0%" filterUnits="objectBoundingBox"><feComponentTransfer in="SourceGraphic"><feFuncA tableValues="1.0 0.0" type="table"/></feComponentTransfer></filter><filter id="g" width="100%" height="100%" x="0%" y="0%" filterUnits="objectBoundingBox"><feComponentTransfer in="SourceGraphic"><feFuncA tableValues="1.0 0.0" type="table"/></feComponentTransfer></filter><filter id="i" width="100%" height="100%" x="0%" y="0%" filterUnits="objectBoundingBox"><feComponentTransfer in="SourceGraphic"><feFuncA tableValues="1.0 0.0" type="table"/></feComponentTransfer></filter><mask id="r" mask-type="alpha"><g filter="url(#a)"><path fill="#fff" d="M0 0h430v430H0z" opacity="0"/><use xmlns:ns1="http://www.w3.org/1999/xlink" ns1:href="#b"/></g></mask><mask id="q" mask-type="alpha"><g filter="url(#c)"><path fill="#fff" d="M0 0h430v430H0z" opacity="0"/><use xmlns:ns2="http://www.w3.org/1999/xlink" ns2:href="#d"/></g></mask><mask id="p" mask-type="alpha"><g filter="url(#e)"><path fill="#fff" d="M0 0h430v430H0z" opacity="0"/><use xmlns:ns3="http://www.w3.org/1999/xlink" ns3:href="#f"/></g></mask><mask id="n" mask-type="alpha"><g filter="url(#g)"><path fill="#fff" d="M0 0h430v430H0z" opacity="0"/><use xmlns:ns4="http://www.w3.org/1999/xlink" ns4:href="#h"/></g></mask><mask id="m" mask-type="alpha"><g filter="url(#i)"><path fill="#fff" d="M0 0h430v430H0z" opacity="0"/><use xmlns:ns5="http://www.w3.org/1999/xlink" ns5:href="#j"/></g></mask><clipPath id="k"><path d="M0 0h430v430H0z"/></clipPath><clipPath id="o"><path d="M0 0h430v430H0z"/></clipPath><clipPath id="l"><path d="M0 0h430v430H0z"/></clipPath><g id="b" style="display:none"><path fill-opacity="0" stroke-linecap="round" stroke-linejoin="round"/><path/><path/></g><g id="d" style="display:none"><path fill-opacity="0" stroke-linecap="round" stroke-linejoin="round"/><path/><path/></g><g id="f" style="display:none"><path fill-opacity="0" stroke-linecap="round" stroke-linejoin="round"/><path/><path/></g><path id="h" fill="#FFF" d="M58.974-87.275-82.552 54.252l-4.718 33.023 33.023-4.718L87.27-58.979 58.974-87.275z" style="display:block" transform="translate(275.444 234.179)"/><path id="j" fill="#FFF" d="M58.974-87.275-82.552 54.252l-4.718 33.023 33.023-4.718L87.27-58.979 58.974-87.275z" style="display:block" transform="translate(275.444 234.179)"/></defs><g clip-path="url(#k)"><g clip-path="url(#l)" style="display:block"><g fill="none" stroke="#121330" stroke-linecap="round" stroke-linejoin="round" stroke-width="12" mask="url(#m)" style="display:block"><path d="M308.416 148.288v226.831H81.584V54.881l133.43.004" class="primary"/><path d="M215.014 148.287h93.402l-93.402-93.402v93.402z" class="primary"/></g><g mask="url(#n)" style="display:block"><path fill="none" stroke="#121330" stroke-linecap="round" stroke-linejoin="round" stroke-width="12" d="M204.014 222" class="primary"/></g><g style="display:block"><path fill="none" stroke="#07A889" stroke-linecap="round" stroke-linejoin="round" stroke-width="12" d="m334.433 146.914-141.55 141.502-4.724 33.022 33.024-4.712 141.542-141.511-28.292-28.301z" class="secondary"/><path fill="#07A889" d="m358.017 170.506-18.867-18.874L354 136.788a5.69 5.69 0 0 1 8.046.001l10.821 10.825a5.69 5.69 0 0 1-.001 8.047l-14.849 14.845z" class="secondary"/></g></g><g clip-path="url(#o)" style="display:none"><g fill="none" mask="url(#p)" style="display:none"><path class="primary"/><path class="primary"/></g><g mask="url(#q)" style="display:none"><path fill="none" class="primary"/></g><g mask="url(#r)" style="display:none"><path fill="none" class="primary"/></g><g style="display:none"><path fill="none" class="secondary"/><path class="secondary"/></g></g></g></svg>